<svg width="451" height="73" viewBox="0 0 451 73" fill="none" xmlns="http://www.w3.org/2000/svg">
<g clip-path="url(#clip0_524_146)">
<path d="M45.523 31.8073H48.4186V22.9176H39.529V25.8133H45.523V31.8073Z" fill="#0673EC"/>
<path d="M18.3187 53.0135L0.206836 71.1213C0.11016 71.2172 0.0442239 71.3397 0.0174395 71.4731C-0.00934497 71.6066 0.00422761 71.7451 0.0564375 71.8708C0.108647 71.9966 0.197128 72.1039 0.310587 72.1791C0.424046 72.2544 0.557343 72.2942 0.693488 72.2934H38.2028C45.7085 72.2848 52.9042 69.2991 58.2111 63.9914C63.518 58.6837 66.5027 51.4876 66.5102 43.9819C66.5102 34.0257 60.5892 24.4668 52.0564 19.2717V53.0135H18.3187Z" fill="#0673EC"/>
<path d="M69.6776 1.90735e-06H32.1601C24.6562 0.00858881 17.4622 2.9933 12.1561 8.29935C6.85008 13.6054 3.86538 20.7995 3.85679 28.3034C3.85679 38.2596 9.78187 47.8265 18.3146 53.0419V19.2799H52.0523L70.1602 1.17205C70.2566 1.07643 70.3224 0.954307 70.3493 0.821201C70.3763 0.688095 70.363 0.549997 70.3113 0.424426C70.2596 0.298855 70.1718 0.191484 70.0589 0.115919C69.9461 0.0403551 69.8133 1.90735e-06 69.6776 1.90735e-06Z" fill="#0673EC"/>
<path d="M48.4186 40.4901H45.523V46.4882H39.529V49.3798H48.4186V40.4901Z" fill="#0673EC"/>
<path d="M30.834 46.4882H24.8359V40.4901H21.9443V49.3798H30.834V46.4882Z" fill="#0673EC"/>
<path d="M24.8359 25.8133H30.834V22.9176H21.9443V31.8073H24.8359V25.8133Z" fill="#0673EC"/>
<path d="M83.8475 43.4506H90.6323C90.8878 47.717 94.1282 51.9307 100.812 51.9307C105.642 51.9307 108.262 49.7205 108.262 46.2246C108.262 42.8342 105.642 41.0863 101.939 39.8494L97.1089 38.2272C91.4556 36.3251 85.6968 33.7661 85.6968 26.7095C85.6968 19.7706 91.3015 15.8651 99.3192 15.8651C109.344 15.8651 113.148 21.7253 113.659 27.9465H106.866C106.611 24.6047 104.555 21.3644 99.0556 21.3644C94.9433 21.3644 92.6276 23.2664 92.6276 26.1985C92.6276 29.4429 95.4056 31.0286 99.1164 32.2818L103.983 33.8756C109.689 35.7776 115.192 38.3366 115.192 45.7014C115.192 53.1554 109.64 57.5232 100.54 57.5232C89.0831 57.4867 84.3503 50.5964 83.8475 43.4506Z" fill="black"/>
<path d="M117.678 41.2931C117.678 31.1138 122.817 25.0995 131.763 25.0995C139.424 25.0995 144.1 29.4713 145.025 36.9253H138.191C137.68 32.7076 135.47 30.2946 131.869 30.2946C127.14 30.2946 124.828 34.3501 124.828 41.2931C124.828 48.2361 127.14 52.2957 131.82 52.2957C135.47 52.2957 137.68 49.8259 138.191 45.6649H145.029C143.95 53.0662 139.375 57.4867 131.715 57.4867C122.509 57.4867 117.678 51.1115 117.678 41.2931Z" fill="black"/>
<path d="M148.91 56.7162V25.8741H155.18V31.3206H156.417C157.033 28.4818 158.781 25.5659 164.795 25.5659H166.13V31.9371H164.228C158.213 31.9371 155.849 34.9706 155.849 41.2931V56.704L148.91 56.7162Z" fill="black"/>
<path d="M167.488 41.2444C167.488 31.4261 172.476 25.0995 181.78 25.0995C190.572 25.0995 195.402 30.7042 195.402 41.2931V42.9924H174.224C174.585 48.593 177.152 52.3443 181.885 52.3443C185.482 52.3443 187.64 50.0854 188.463 46.8451H195.041C193.914 52.8107 189.903 57.4867 181.885 57.4867C172.476 57.4867 167.488 51.1115 167.488 41.2444ZM188.617 38.365C188.362 33.0199 185.945 30.0878 181.723 30.0878C177.404 30.0878 174.829 32.9672 174.269 38.365H188.617Z" fill="black"/>
<path d="M197.844 41.2444C197.844 31.4261 202.832 25.0995 212.135 25.0995C220.927 25.0995 225.758 30.7042 225.758 41.2931V42.9924H204.58C204.941 48.593 207.508 52.3443 212.237 52.3443C215.838 52.3443 217.995 50.0854 218.819 46.8451H225.384C224.253 52.8107 220.246 57.4867 212.224 57.4867C202.832 57.4867 197.844 51.1115 197.844 41.2444ZM218.973 38.365C218.717 33.0199 216.3 30.0878 212.078 30.0878C207.763 30.0878 205.184 32.9672 204.624 38.365H218.973Z" fill="black"/>
<path d="M229.845 56.7162V25.8741H236.168V30.4974H237.385C238.569 27.2084 241.189 25.0995 245.901 25.0995C252.946 25.0995 256.182 29.8809 256.182 37.0267V56.7162H249.243V38.3123C249.243 33.5309 247.596 30.8583 243.898 30.8583C239.372 30.8583 236.752 34.8692 236.752 40.0602V56.7162H229.845Z" fill="black"/>
<path d="M259.422 46.8451H266.106C266.511 49.7245 268.726 52.3971 273.252 52.3971C276.695 52.3971 278.39 50.9087 278.39 48.7471C278.39 46.8451 277.003 45.6122 273.929 44.5334L270.23 43.2479C265.088 41.4472 260.874 39.3911 260.874 34.0459C260.874 28.7008 265.088 25.0995 272.181 25.0995C279.886 25.0995 283.39 29.2645 283.8 34.5083H277.376C277.068 31.9898 275.421 30.0472 271.925 30.0472C268.945 30.0472 267.403 31.3328 267.403 33.4417C267.403 35.5505 268.945 36.6861 272.079 37.8094L275.729 38.9936C280.872 40.7902 284.931 42.7977 284.931 48.1956C284.931 53.7476 280.718 57.4989 272.955 57.4989C263.535 57.4867 259.783 52.0889 259.422 46.8451Z" fill="black"/>
<path d="M288.739 56.7162V15.5934H295.678V29.7268H296.915C298.355 26.888 300.768 25.0995 304.88 25.0995C311.823 25.0995 315.112 29.8809 315.112 37.0267V56.7162H308.173V38.3123C308.173 33.5309 306.527 30.8583 302.824 30.8583C298.302 30.8583 295.678 34.8692 295.678 40.0602V56.7162H288.739Z" fill="black"/>
<path d="M318.977 41.2931C318.977 31.4261 323.706 25.0995 333.524 25.0995C343.343 25.0995 348.071 31.4261 348.071 41.2931C348.071 51.1601 343.343 57.4867 333.524 57.4867C323.706 57.4867 318.977 51.1561 318.977 41.2931ZM340.926 41.2931C340.926 34.1473 338.614 30.1405 333.524 30.1405C328.435 30.1405 326.123 34.1473 326.123 41.2931C326.123 48.4389 328.382 52.4498 333.524 52.4498C338.667 52.4498 340.926 48.4389 340.926 41.2931Z" fill="black"/>
<path d="M355.911 56.7162C354.317 54.8669 353.344 52.7053 353.344 47.5143V30.9638H349.126V25.8741H353.445V18.1686H360.23V25.8741H365.319V30.9638H360.283V46.6423C360.283 52.1902 361.67 54.5587 363.365 56.408V56.7162H355.911Z" fill="black"/>
<path d="M368.544 56.7162V16.6194H383.297C392.962 16.6194 397.228 20.4762 397.228 26.4905C397.228 30.3433 395.326 33.1213 391.368 34.196V35.4126C396.51 36.4427 399.236 39.5249 399.236 44.9755C399.236 51.9672 394.775 56.6959 384.429 56.6959L368.544 56.7162ZM375.487 32.8617H383.042C387.669 32.8617 390.188 31.1665 390.188 27.4152C390.188 23.6639 387.823 22.0173 383.042 22.0173H375.487V32.8617ZM375.487 51.3183H383.865C389.62 51.3183 392.037 48.8526 392.037 44.6876C392.037 40.3685 389.365 38.1055 383.926 38.1055H375.499L375.487 51.3183Z" fill="black"/>
<path d="M403.287 56.7162V25.8741H409.561V31.3206H410.778C411.394 28.4818 413.142 25.5659 419.156 25.5659H420.495V31.9371H418.593C412.578 31.9371 410.214 34.9706 410.214 41.2931V56.704L403.287 56.7162Z" fill="black"/>
<path d="M421.906 41.2931C421.906 31.4261 426.634 25.0995 436.453 25.0995C446.271 25.0995 451 31.4261 451 41.2931C451 51.1601 446.271 57.4867 436.453 57.4867C426.634 57.4867 421.906 51.1561 421.906 41.2931ZM443.854 41.2931C443.854 34.1473 441.542 30.1405 436.453 30.1405C431.363 30.1405 429.052 34.1473 429.052 41.2931C429.052 48.4389 431.315 52.4498 436.453 52.4498C441.591 52.4498 443.854 48.4389 443.854 41.2931Z" fill="black"/>
</g>
<defs>
<clipPath id="clip0_524_146">
<rect width="451" height="72.2974" fill="white"/>
</clipPath>
</defs>
</svg>
