<svg width="50" height="51" viewBox="0 0 50 51" fill="none" xmlns="http://www.w3.org/2000/svg">
<path d="M46.6366 30.8415C46.6366 41.7898 37.732 50.6929 26.7852 50.6929H0.480538C0.385532 50.693 0.292624 50.665 0.213586 50.6122C0.134548 50.5595 0.0729409 50.4845 0.0365653 50.3968C0.000189692 50.309 -0.0093142 50.2124 0.00925838 50.1192C0.027831 50.0261 0.0736403 49.9405 0.140888 49.8734L12.8437 37.1691H36.4992V13.5195C42.4828 17.1631 46.6366 23.8664 46.6366 30.8415ZM22.5505 0C11.608 0 2.69909 8.90457 2.69909 19.847C2.69909 26.8279 6.85292 33.537 12.8351 37.1792V13.5195H36.4992L49.1991 0.820941C49.2662 0.753637 49.3118 0.668001 49.3303 0.574817C49.3487 0.481633 49.3392 0.385067 49.3029 0.297289C49.2666 0.20951 49.2051 0.134444 49.1262 0.0815414C49.0473 0.0286388 48.9545 0.000265556 48.8595 0H22.5505ZM17.4167 18.1011H21.6211V16.0704H15.386V22.3055H17.4167V18.1011ZM21.6211 32.599H17.4167V28.3932H15.386V34.6282H21.6211V32.599ZM33.9525 16.0704H27.7174V18.1011H31.9233V22.3055H33.9468L33.9525 16.0704ZM33.9525 28.3932H31.9291V32.599H27.7174V34.6225H33.9525V28.3932Z" fill="#0673EC"/>
</svg>
